<svg width="271" height="1369" viewBox="0 0 271 1369" fill="none" xmlns="http://www.w3.org/2000/svg">
<path fill-rule="evenodd" clip-rule="evenodd" d="M42.2994 89.9017C26.9444 91.9562 12.6943 94.5299 0 97.5553L4.41934 116.114C15.9412 113.359 28.9286 110.989 42.9758 109.047C45.2756 126.612 52.6713 143.229 64.396 156.797C78.6912 173.369 98.4881 184.319 120.156 187.728C141.847 191.137 164.057 186.802 182.816 175.469C196.097 167.454 207.032 156.301 214.721 143.093L191.677 129.615C186.243 138.939 178.487 146.863 169.017 152.575C155.646 160.658 139.773 163.774 124.283 161.335C108.77 158.897 94.7001 151.085 84.5536 139.323C76.3463 129.818 71.1603 118.236 69.4693 106.022C90.0102 104.125 112.084 103.087 134.7 102.996C184.124 102.816 231.587 108.189 266.851 116.091L271 97.465C258.216 94.5977 244.01 91.2111 228.813 89.2921C227.776 66.0152 218.081 43.8897 201.553 27.3408C184.101 9.84358 160.336 0 135.579 0C110.822 0 87.079 9.84358 69.5594 27.3859C52.8968 44.0703 43.2013 66.4216 42.2994 89.9017ZM69.2212 86.9215C90.0102 85.0702 112.129 84.0542 134.654 83.9639C157.698 83.8736 180.449 84.7541 201.914 86.5377C200.336 71.3885 193.594 57.1424 182.749 46.2829C170.235 33.7526 153.279 26.7312 135.601 26.7312C117.924 26.7312 100.946 33.7752 88.4544 46.2829C77.4737 57.2327 70.7319 71.6143 69.2212 86.9215Z" fill="#000609"/>
<path d="M69.5693 396.135V316.861H201.362V395.803H174.079V346.15H150.589V391.886H123.851V346.15H96.8523V396.159H69.5693V396.135Z" fill="#000609"/>
<path d="M69.5762 550.029V519.008L100.865 506.429V461.879L69.5762 449.489V418.99L201.369 472.749V496.223L69.5762 550.029ZM127.413 471.942V496.46L158.465 484.142L127.413 471.942Z" fill="#000609"/>
<path d="M69.5762 678.478V643.588L118.572 609.41V605.945H69.5762V576.728H201.369V619.521C201.369 633.002 197.647 644.513 190.607 652.773C183.188 661.484 172.498 666.112 159.698 666.112C142.584 666.112 128.788 656.594 122.317 640.526L69.5762 678.478ZM144.409 605.897V619.64C144.409 624.861 145.807 629.228 148.462 632.266C151.07 635.281 154.886 636.871 159.484 636.871C164.107 636.871 167.733 635.328 170.293 632.314C172.853 629.276 174.204 624.909 174.204 619.64V605.897H144.409Z" fill="#000609"/>
<path d="M69.5762 783.154V710.266H201.369V739.53H97.4281V783.131H69.5762V783.154Z" fill="#000609"/>
<path d="M69.5762 861.881V832.474H126.821L201.322 784.269V818.352L155.17 847.355L201.322 876.359V909.872L126.844 861.905H69.5762V861.881Z" fill="#000609"/>
<path d="M69.5762 976.017V931.42H201.369V976.017C201.369 1013.26 172.427 1042.4 135.473 1042.4C98.5184 1042.4 69.5762 1013.23 69.5762 976.017ZM97.3569 960.708V975.471C97.3569 996.643 113.713 1012.59 135.401 1012.59C157.138 1012.59 173.517 996.643 173.517 975.471V960.708H97.3569Z" fill="#000609"/>
<path d="M67.374 1137.79C67.374 1100.08 97.8807 1069.42 135.404 1069.42C173.022 1069.49 203.623 1100.18 203.623 1137.79C203.623 1175.46 173.022 1206.1 135.404 1206.1C97.9044 1206.1 67.374 1175.46 67.374 1137.79ZM175.179 1137.79C175.179 1116.17 157.733 1099.23 135.475 1099.23C113.336 1099.3 95.9844 1116.24 95.9844 1137.79C95.9844 1159.42 113.336 1176.36 135.475 1176.36C157.733 1176.34 175.179 1159.42 175.179 1137.79Z" fill="#000609"/>
<path d="M67.4473 1303.72C67.4473 1290.43 70.3865 1278.33 76.1702 1267.74V1267.72C82.0725 1257.04 90.2503 1248.83 101.154 1242.58C111.892 1236.48 123.649 1233.4 136.141 1233.4C153.468 1233.4 168.117 1238.98 180.941 1250.44C196.206 1264.06 203.625 1281.25 203.625 1303.01C203.625 1314.14 201.539 1324.75 197.415 1334.56C194.641 1341.08 190.375 1347.44 184.71 1353.47L178.025 1360.64L158.375 1340.75L163.993 1334.18C171.838 1325.04 175.797 1314.59 175.797 1303.08C175.797 1291.33 171.862 1281.41 164.135 1273.58C156.384 1265.7 146.878 1261.69 135.833 1261.69C124.384 1261.69 114.57 1265.84 106.677 1274.03C98.6888 1282.24 94.6354 1292.52 94.6354 1304.6C94.6354 1312.43 96.2947 1319.08 99.5421 1324.37C102.221 1328.79 106.321 1332.59 111.75 1335.65V1300.59H138.63V1368.73L128.935 1368.38C118.505 1368.09 108.36 1365.13 98.7836 1359.6C88.6621 1353.76 80.8162 1346.04 75.4354 1336.67C70.1258 1327.27 67.4473 1316.21 67.4473 1303.72Z" fill="#000609"/>
</svg>
