<svg xmlns="http://www.w3.org/2000/svg" width="102.3" height="18.576" viewBox="0 0 102.3 18.576">
  <g id="Group_5" data-name="Group 5" transform="translate(5444 -11856)">
    <path id="FoodSpin" d="M7.712,1.49V3.164H2.4v3.69h4.14V8.528H2.4V14H.35V1.49Zm6.2,12.672a5.137,5.137,0,0,1-2.538-.63,4.67,4.67,0,0,1-1.782-1.8,5.481,5.481,0,0,1-.648-2.7A5.326,5.326,0,0,1,9.614,6.35a4.6,4.6,0,0,1,1.818-1.8,5.275,5.275,0,0,1,2.574-.63,5.275,5.275,0,0,1,2.574.63A4.6,4.6,0,0,1,18.4,6.35a5.326,5.326,0,0,1,.666,2.682,5.215,5.215,0,0,1-.684,2.682,4.783,4.783,0,0,1-1.872,1.818A5.379,5.379,0,0,1,13.916,14.162Zm0-1.782A3,3,0,0,0,15.392,12a2.862,2.862,0,0,0,1.134-1.134,3.646,3.646,0,0,0,.432-1.836,3.67,3.67,0,0,0-.414-1.818,2.782,2.782,0,0,0-1.1-1.134,3.071,3.071,0,0,0-2.952,0,2.7,2.7,0,0,0-1.062,1.134,3.806,3.806,0,0,0-.4,1.818,3.538,3.538,0,0,0,.81,2.484A2.749,2.749,0,0,0,13.916,12.38Zm11.478,1.782a5.137,5.137,0,0,1-2.538-.63,4.67,4.67,0,0,1-1.782-1.8,5.481,5.481,0,0,1-.648-2.7,5.326,5.326,0,0,1,.666-2.682,4.6,4.6,0,0,1,1.818-1.8,5.573,5.573,0,0,1,5.148,0,4.6,4.6,0,0,1,1.818,1.8,5.326,5.326,0,0,1,.666,2.682,5.215,5.215,0,0,1-.684,2.682,4.783,4.783,0,0,1-1.872,1.818A5.379,5.379,0,0,1,25.394,14.162Zm0-1.782A3,3,0,0,0,26.87,12,2.862,2.862,0,0,0,28,10.868a3.646,3.646,0,0,0,.432-1.836,3.67,3.67,0,0,0-.414-1.818,2.782,2.782,0,0,0-1.1-1.134,3.071,3.071,0,0,0-2.952,0A2.7,2.7,0,0,0,22.91,7.214a3.806,3.806,0,0,0-.4,1.818,3.538,3.538,0,0,0,.81,2.484A2.749,2.749,0,0,0,25.394,12.38ZM31.887,9A5.554,5.554,0,0,1,32.5,6.35a4.57,4.57,0,0,1,4.086-2.43,4.51,4.51,0,0,1,1.908.432A3.835,3.835,0,0,1,40,5.468V.68h2.07V14H40V12.506a3.825,3.825,0,0,1-1.4,1.188,4.275,4.275,0,0,1-2.034.468,4.532,4.532,0,0,1-2.376-.648A4.809,4.809,0,0,1,32.5,11.678,5.77,5.77,0,0,1,31.887,9ZM40,9.032a3.531,3.531,0,0,0-.432-1.782,2.944,2.944,0,0,0-5.166-.018A3.551,3.551,0,0,0,33.993,9a3.76,3.76,0,0,0,.414,1.8,3.14,3.14,0,0,0,1.116,1.188,2.961,2.961,0,0,0,1.476.4,2.886,2.886,0,0,0,2.574-1.548A3.632,3.632,0,0,0,40,9.032Zm8.887,5.094a5.7,5.7,0,0,1-2.268-.432,3.786,3.786,0,0,1-1.584-1.26,3.177,3.177,0,0,1-.576-1.89h2.2a2,2,0,0,0,.63,1.332,2.3,2.3,0,0,0,1.6.522,2.483,2.483,0,0,0,1.656-.5,1.694,1.694,0,0,0,.594-1.332,1.425,1.425,0,0,0-.378-1.026,2.375,2.375,0,0,0-.918-.612,13.191,13.191,0,0,0-1.512-.468,15.743,15.743,0,0,1-2-.648,3.381,3.381,0,0,1-1.3-1.044,2.991,2.991,0,0,1-.54-1.872A3.327,3.327,0,0,1,45.04,3,3.449,3.449,0,0,1,46.552,1.76a5.494,5.494,0,0,1,2.25-.432,4.62,4.62,0,0,1,2.97.918,3.314,3.314,0,0,1,1.3,2.484H50.8a1.643,1.643,0,0,0-.648-1.17,2.4,2.4,0,0,0-1.566-.486,2.222,2.222,0,0,0-1.44.45,1.568,1.568,0,0,0-.558,1.3,1.368,1.368,0,0,0,.342.954,2.639,2.639,0,0,0,.9.576,13.832,13.832,0,0,0,1.476.468,14.926,14.926,0,0,1,2.016.684,3.262,3.262,0,0,1,1.332,1.062,2.954,2.954,0,0,1,.558,1.89,3.371,3.371,0,0,1-.522,1.8A3.684,3.684,0,0,1,51.2,13.622,4.944,4.944,0,0,1,48.892,14.126ZM57.685,5.54a4.17,4.17,0,0,1,1.422-1.152,4.343,4.343,0,0,1,2.034-.468,4.57,4.57,0,0,1,4.05,2.43A5.555,5.555,0,0,1,65.8,9a5.771,5.771,0,0,1-.612,2.682A4.631,4.631,0,0,1,63.5,13.514a4.439,4.439,0,0,1-2.358.648,4.374,4.374,0,0,1-2.016-.45,4.624,4.624,0,0,1-1.44-1.152v6.156H55.633V4.082h2.052ZM63.715,9a3.432,3.432,0,0,0-.432-1.764A2.748,2.748,0,0,0,62.167,6.1a2.9,2.9,0,0,0-1.476-.4,2.961,2.961,0,0,0-1.476.4A3.033,3.033,0,0,0,58.1,7.25a3.654,3.654,0,0,0-.414,1.782,3.76,3.76,0,0,0,.414,1.8,3.033,3.033,0,0,0,1.116,1.152,2.961,2.961,0,0,0,1.476.4,2.9,2.9,0,0,0,1.476-.4A2.967,2.967,0,0,0,63.283,10.8,3.632,3.632,0,0,0,63.715,9Zm5.161-6.228a1.291,1.291,0,0,1-1.314-1.314A1.291,1.291,0,0,1,68.876.14a1.25,1.25,0,0,1,.918.378,1.271,1.271,0,0,1,.378.936,1.271,1.271,0,0,1-.378.936A1.25,1.25,0,0,1,68.876,2.768Zm1.008,1.314V14H67.832V4.082Zm7.7-.162a4.394,4.394,0,0,1,2.088.486,3.443,3.443,0,0,1,1.458,1.44,4.737,4.737,0,0,1,.522,2.3V14H79.617V8.456a2.845,2.845,0,0,0-.666-2.034,2.355,2.355,0,0,0-1.818-.72,2.413,2.413,0,0,0-1.836.72,2.845,2.845,0,0,0-.666,2.034V14H72.578V4.082h2.052V5.216a3.412,3.412,0,0,1,1.278-.954A4.178,4.178,0,0,1,77.582,3.92Z" transform="translate(-5423.35 11855.86)" fill="#333"/>
    <g id="Group_4" data-name="Group 4" transform="translate(0 1)">
      <circle id="fa-logo" cx="8" cy="8" r="8" transform="translate(-5444 11856)" fill="#ff922c"/>
      <path id="Ellipse_7" data-name="Ellipse 7" d="M6,8C6,6.343,3,.5,3,.5S0,6.343,0,8A3,3,0,0,0,6,8Z" transform="translate(-5439 11859.538)" fill="#fff"/>
    </g>
  </g>
</svg>
